<?xml version="1.0"?>
<svg xmlns="http://www.w3.org/2000/svg" xmlns:xlink="http://www.w3.org/1999/xlink" xmlns:svgjs="http://svgjs.com/svgjs" version="1.1" width="512" height="512" x="0" y="0" viewBox="0 0 512 512" style="enable-background:new 0 0 512 512" xml:space="preserve" class=""><g><g xmlns="http://www.w3.org/2000/svg"><g><circle cx="256" cy="256" fill="#13aa87" r="256" data-original="#ffb54a" style=""/></g><path d="m500.975 330.499-180.8-180.8s-97.396-6.244-108.659 52.649c-11.262 58.894-17.525 172.499-17.525 172.499l128.432 128.432c85.285-22.852 152.996-88.637 178.552-172.78z" fill="#0e7868" data-original="#f9880d" style="" class=""/><path d="m322.973 251.38c10.095-13.752 16.075-30.703 16.075-49.031 0-45.793-37.255-83.049-83.048-83.049s-83.048 37.256-83.048 83.049c0 18.328 5.98 35.28 16.075 49.031-15.541 15.226-25.208 36.425-25.208 59.849 0 45.361 36.903 82.265 82.265 82.265h19.834c45.361 0 82.265-36.903 82.265-82.265-.001-23.424-9.669-44.623-25.21-59.849zm-66.973-74.08c13.811 0 25.048 11.237 25.048 25.049 0 13.811-11.236 25.048-25.048 25.048s-25.048-11.236-25.048-25.048 11.237-25.049 25.048-25.049zm9.917 158.193h-19.834c-13.38 0-24.265-10.885-24.265-24.265 0-14.244 11.588-25.832 25.831-25.832h16.701c14.243 0 25.831 11.588 25.831 25.832.001 13.381-10.884 24.265-24.264 24.265z" fill="#f8fffb" data-original="#f8fffb" style=""/><path d="m322.97 251.38c10.1-13.75 16.08-30.7 16.08-49.03 0-45.79-37.26-83.05-83.05-83.05v58c13.81 0 25.05 11.24 25.05 25.05s-11.24 25.05-25.05 25.05v58h8.35c14.24 0 25.83 11.58 25.83 25.83 0 13.38-10.88 24.26-24.26 24.26h-9.92v58h9.92c45.36 0 82.26-36.9 82.26-82.26 0-23.43-9.67-44.62-25.21-59.85z" fill="#d8d8d8" data-original="#d8d8d8" style=""/></g></g></svg>
