<?xml version="1.0" encoding="UTF-8" standalone="no" ?>
<!DOCTYPE svg PUBLIC "-//W3C//DTD SVG 1.1//EN" "http://www.w3.org/Graphics/SVG/1.1/DTD/svg11.dtd">
<svg xmlns="http://www.w3.org/2000/svg" xmlns:xlink="http://www.w3.org/1999/xlink" version="1.1" width="231.78999999999996" height="127.22815999999995" xml:space="preserve">
<desc>Created with Fabric.js 1.6.0-rc.1</desc>
<defs></defs>
<g style="stroke: none; stroke-width: 1; stroke-dasharray: none; stroke-linecap: butt; stroke-linejoin: miter; stroke-miterlimit: 10; fill: none; fill-rule: nonzero; opacity: 1;" transform="translate(80.13999999999999 38.44999999999999) scale(0.16 0.16)" >
  <path d="M 167.232 256.008 l 142.176 -81.728 c -28.544 -49.664 -82.176 -83.2 -143.76 -83.2 C 74.16 91.096 0 164.92 0 256.008 S 74.16 420.92 165.648 420.92 c 61.584 0 115.216 -33.536 143.76 -83.2 L 167.232 256.008 z" style="stroke: none; stroke-width: 1; stroke-dasharray: none; stroke-linecap: butt; stroke-linejoin: miter; stroke-miterlimit: 10; fill: #13aa87; fill-rule: nonzero; opacity: 1;" transform=" matrix(1 0 0 1 0 0) " stroke-linecap="round" />
  <ellipse cx="155.6" cy="160.644" rx="23.84" ry="23.744" style="stroke: none; stroke-width: 1; stroke-dasharray: none; stroke-linecap: butt; stroke-linejoin: miter; stroke-miterlimit: 10; fill: #13aa87; fill-rule: nonzero; opacity: 1;" transform=" matrix(1 0 0 1 0 0) "/>
  <ellipse cx="327.53999999999996" cy="256.004" rx="23.84" ry="23.744" style="stroke: none; stroke-width: 1; stroke-dasharray: none; stroke-linecap: butt; stroke-linejoin: miter; stroke-miterlimit: 10; fill: #999999; fill-rule: nonzero; opacity: 1;" transform=" matrix(1 0 0 1 0 0) "/>
  <ellipse cx="407.84" cy="256.004" rx="23.84" ry="23.744" style="stroke: none; stroke-width: 1; stroke-dasharray: none; stroke-linecap: butt; stroke-linejoin: miter; stroke-miterlimit: 10; fill: #999999; fill-rule: nonzero; opacity: 1;" transform=" matrix(1 0 0 1 0 0) "/>
  <ellipse cx="488.15999999999997" cy="256.004" rx="23.84" ry="23.744" style="stroke: none; stroke-width: 1; stroke-dasharray: none; stroke-linecap: butt; stroke-linejoin: miter; stroke-miterlimit: 10; fill: #999999; fill-rule: nonzero; opacity: 1;" transform=" matrix(1 0 0 1 0 0) "/>
</g>
<g style="stroke: none; stroke-width: 1; stroke-dasharray: none; stroke-linecap: butt; stroke-linejoin: miter; stroke-miterlimit: 10; fill: none; fill-rule: nonzero; opacity: 1;" transform="translate(148.64999999999998 10.589999999999975) scale(1.59 1.59)" >
  <path d="M 41.595 58 H 16.405 C 14.525 58 13 56.475 13 54.595 V 3.405 C 13 1.525 14.525 0 16.405 0 h 25.189 C 43.475 0 45 1.525 45 3.405 v 51.189 C 45 56.475 43.475 58 41.595 58 z" style="stroke: none; stroke-width: 1; stroke-dasharray: none; stroke-linecap: butt; stroke-linejoin: miter; stroke-miterlimit: 10; fill: #424A60; fill-rule: nonzero; opacity: 1;" transform=" matrix(1 0 0 1 0 0) " stroke-linecap="round" />
  <rect x="13" y="6" rx="0" ry="0" width="32" height="40" style="stroke: none; stroke-width: 1; stroke-dasharray: none; stroke-linecap: butt; stroke-linejoin: miter; stroke-miterlimit: 10; fill: #f7feff; fill-rule: nonzero; opacity: 1;" transform=" matrix(1 0 0 1 0 0) "/>
  <circle cx="29" cy="52" r="3" style="stroke: none; stroke-width: 1; stroke-dasharray: none; stroke-linecap: butt; stroke-linejoin: miter; stroke-miterlimit: 10; fill: #262B35; fill-rule: nonzero; opacity: 1;" transform="  matrix(1 0 0 1 0 0) "/>
  <path d="M 29 4 h -4 c -0.553 0 -1 -0.447 -1 -1 s 0.447 -1 1 -1 h 4 c 0.553 0 1 0.447 1 1 S 29.553 4 29 4 z" style="stroke: none; stroke-width: 1; stroke-dasharray: none; stroke-linecap: butt; stroke-linejoin: miter; stroke-miterlimit: 10; fill: #262B35; fill-rule: nonzero; opacity: 1;" transform=" matrix(1 0 0 1 0 0) " stroke-linecap="round" />
  <path d="M 33 4 h -1 c -0.553 0 -1 -0.447 -1 -1 s 0.447 -1 1 -1 h 1 c 0.553 0 1 0.447 1 1 S 33.553 4 33 4 z" style="stroke: none; stroke-width: 1; stroke-dasharray: none; stroke-linecap: butt; stroke-linejoin: miter; stroke-miterlimit: 10; fill: #262B35; fill-rule: nonzero; opacity: 1;" transform=" matrix(1 0 0 1 0 0) " stroke-linecap="round" />
  <path d="M 30.962 17.019 h -3.924 c -0.573 0 -1.038 -0.465 -1.038 -1.038 v -3.924 c 0 -0.573 0.465 -1.038 1.038 -1.038 h 3.924 c 0.573 0 1.038 0.465 1.038 1.038 v 3.924 C 32 16.554 31.535 17.019 30.962 17.019 z" style="stroke: none; stroke-width: 1; stroke-dasharray: none; stroke-linecap: butt; stroke-linejoin: miter; stroke-miterlimit: 10; fill: #fffff0; fill-rule: nonzero; opacity: 1;" transform=" matrix(1 0 0 1 0 0) " stroke-linecap="round" />
  <path d="M 21.962 17.019 h -3.924 c -0.573 0 -1.038 -0.465 -1.038 -1.038 v -3.924 c 0 -0.573 0.465 -1.038 1.038 -1.038 h 3.924 c 0.573 0 1.038 0.465 1.038 1.038 v 3.924 C 23 16.554 22.535 17.019 21.962 17.019 z" style="stroke: none; stroke-width: 1; stroke-dasharray: none; stroke-linecap: butt; stroke-linejoin: miter; stroke-miterlimit: 10; fill: #fffff0; fill-rule: nonzero; opacity: 1;" transform=" matrix(1 0 0 1 0 0) " stroke-linecap="round" />
  <path d="M 39.962 17.019 h -3.924 c -0.573 0 -1.038 -0.465 -1.038 -1.038 v -3.924 c 0 -0.573 0.465 -1.038 1.038 -1.038 h 3.924 c 0.573 0 1.038 0.465 1.038 1.038 v 3.924 C 41 16.554 40.535 17.019 39.962 17.019 z" style="stroke: none; stroke-width: 1; stroke-dasharray: none; stroke-linecap: butt; stroke-linejoin: miter; stroke-miterlimit: 10; fill: #ffffff; fill-rule: nonzero; opacity: 1;" transform=" matrix(1 0 0 1 0 0) " stroke-linecap="round" />
  <path d="M 30.962 26 h -3.924 C 26.465 26 26 25.535 26 24.962 v -3.924 C 26 20.465 26.465 20 27.038 20 h 3.924 C 31.535 20 32 20.465 32 21.038 v 3.924 C 32 25.535 31.535 26 30.962 26 z" style="stroke: none; stroke-width: 1; stroke-dasharray: none; stroke-linecap: butt; stroke-linejoin: miter; stroke-miterlimit: 10; fill: #fffff0; fill-rule: nonzero; opacity: 1;" transform=" matrix(1 0 0 1 0 0) " stroke-linecap="round" />
  <path d="M 21.962 26 h -3.924 C 17.465 26 17 25.535 17 24.962 v -3.924 C 17 20.465 17.465 20 18.038 20 h 3.924 C 22.535 20 23 20.465 23 21.038 v 3.924 C 23 25.535 22.535 26 21.962 26 z" style="stroke: none; stroke-width: 1; stroke-dasharray: none; stroke-linecap: butt; stroke-linejoin: miter; stroke-miterlimit: 10; fill: #fffff0; fill-rule: nonzero; opacity: 1;" transform=" matrix(1 0 0 1 0 0) " stroke-linecap="round" />
  <path d="M 39.962 26 h -3.924 C 35.465 26 35 25.535 35 24.962 v -3.924 C 35 20.465 35.465 20 36.038 20 h 3.924 C 40.535 20 41 20.465 41 21.038 v 3.924 C 41 25.535 40.535 26 39.962 26 z" style="stroke: none; stroke-width: 1; stroke-dasharray: none; stroke-linecap: butt; stroke-linejoin: miter; stroke-miterlimit: 10; fill: #fffff0; fill-rule: nonzero; opacity: 1;" transform=" matrix(1 0 0 1 0 0) " stroke-linecap="round" />
  <path d="M 30.962 35 h -3.924 C 26.465 35 26 34.535 26 33.962 v -3.924 C 26 29.465 26.465 29 27.038 29 h 3.924 C 31.535 29 32 29.465 32 30.038 v 3.924 C 32 34.535 31.535 35 30.962 35 z" style="stroke: none; stroke-width: 1; stroke-dasharray: none; stroke-linecap: butt; stroke-linejoin: miter; stroke-miterlimit: 10; fill: #fffff0; fill-rule: nonzero; opacity: 1;" transform=" matrix(1 0 0 1 0 0) " stroke-linecap="round" />
  <path d="M 21.962 35 h -3.924 C 17.465 35 17 34.535 17 33.962 v -3.924 C 17 29.465 17.465 29 18.038 29 h 3.924 C 22.535 29 23 29.465 23 30.038 v 3.924 C 23 34.535 22.535 35 21.962 35 z" style="stroke: none; stroke-width: 1; stroke-dasharray: none; stroke-linecap: butt; stroke-linejoin: miter; stroke-miterlimit: 10; fill: #fffff0; fill-rule: nonzero; opacity: 1;" transform=" matrix(1 0 0 1 0 0) " stroke-linecap="round" />
  <path d="M 39.962 35 h -3.924 C 35.465 35 35 34.535 35 33.962 v -3.924 C 35 29.465 35.465 29 36.038 29 h 3.924 C 40.535 29 41 29.465 41 30.038 v 3.924 C 41 34.535 40.535 35 39.962 35 z" style="stroke: none; stroke-width: 1; stroke-dasharray: none; stroke-linecap: butt; stroke-linejoin: miter; stroke-miterlimit: 10; fill: #fffff0; fill-rule: nonzero; opacity: 1;" transform=" matrix(1 0 0 1 0 0) " stroke-linecap="round" />
</g>
<g style="stroke: none; stroke-width: 1; stroke-dasharray: none; stroke-linecap: butt; stroke-linejoin: miter; stroke-miterlimit: 10; fill: none; fill-rule: nonzero; opacity: 1;" transform="translate(177.97000000000003 38.44999999999999) scale(0.11 0.11)" >
  <circle cx="148.5" cy="148.5" r="148.5" style="stroke: none; stroke-width: 1; stroke-dasharray: none; stroke-linecap: butt; stroke-linejoin: miter; stroke-miterlimit: 10; fill: #16A085; fill-rule: nonzero; opacity: 1;" transform="  matrix(1 0 0 1 0 0) "/>
  <path d="M 224.696 106.696 l -115.409 108.29 l 77.124 77.124 c 54.847 -14.44 97.277 -59.463 107.966 -115.733 L 224.696 106.696 z" style="stroke: none; stroke-width: 1; stroke-dasharray: none; stroke-linecap: butt; stroke-linejoin: miter; stroke-miterlimit: 10; fill: #0E7763; fill-rule: nonzero; opacity: 1;" transform=" matrix(1 0 0 1 0 0) " stroke-linecap="round" />
  <polygon points="121,226.7 64.15,169.85 93.85,140.15 121,167.3 203.15,85.15 232.85,114.85 " style="stroke: none; stroke-width: 1; stroke-dasharray: none; stroke-linecap: butt; stroke-linejoin: miter; stroke-miterlimit: 10; fill: #ECF0F1; fill-rule: nonzero; opacity: 1;" transform="  matrix(1 0 0 1 0 0) "/>
</g>
  <g transform="translate(78.72 36.72)">
   <text font-family="ADAMCG PRO" font-size="40" font-weight="normal" style="stroke: none; stroke-width: 1; stroke-dasharray: none; stroke-linecap: butt; stroke-linejoin: miter; stroke-miterlimit: 10; fill: #ffffff; fill-rule: nonzero; opacity: 1;" ><tspan x="-68.22" y="8.98" style="stroke: none; stroke-width: 0; stroke-dasharray: none; stroke-linecap: butt; stroke-linejoin: miter; stroke-miterlimit: 4; fill: #ffffff; fill-rule: ; opacity: 1;">P</tspan><tspan x="-45.8" y="8.98" style="stroke: none; stroke-width: 0; stroke-dasharray: none; stroke-linecap: butt; stroke-linejoin: miter; stroke-miterlimit: 4; fill: #ffffff; fill-rule: ; opacity: 1;">H</tspan><tspan x="-18.5" y="8.98" style="stroke: none; stroke-width: 0; stroke-dasharray: none; stroke-linecap: butt; stroke-linejoin: miter; stroke-miterlimit: 4; fill: #ffffff; fill-rule: ; opacity: 1;">O</tspan><tspan x="15.45" y="8.98" style="stroke: none; stroke-width: 0; stroke-dasharray: none; stroke-linecap: butt; stroke-linejoin: miter; stroke-miterlimit: 4; fill: #ffffff; fill-rule: ; opacity: 1;">N</tspan><tspan x="44.96" y="8.98" style="stroke: none; stroke-width: 0; stroke-dasharray: none; stroke-linecap: butt; stroke-linejoin: miter; stroke-miterlimit: 4; fill: #ffffff; fill-rule: ; opacity: 1;">E</tspan></text>
 </g>
  <g transform="translate(46.72 88.17) scale(1.13 1.13)">
   <text font-family="ADAMCG PRO" font-size="40" font-weight="normal" style="stroke: none; stroke-width: 1; stroke-dasharray: none; stroke-linecap: butt; stroke-linejoin: miter; stroke-miterlimit: 10; fill: #13aa87; fill-rule: nonzero; opacity: 1;" ><tspan x="-31.99" y="8.98" style="stroke: none; stroke-width: 0; stroke-dasharray: none; stroke-linecap: butt; stroke-linejoin: miter; stroke-miterlimit: 4; fill: #13aa87; fill-rule: ; opacity: 1;">4</tspan><tspan x="-7.64" y="8.98" style="stroke: none; stroke-width: 0; stroke-dasharray: none; stroke-linecap: butt; stroke-linejoin: miter; stroke-miterlimit: 4; fill: #13aa87; fill-rule: ; opacity: 1;">U</tspan><tspan x="20" y="8.98" style="stroke: none; stroke-width: 0; stroke-dasharray: none; stroke-linecap: butt; stroke-linejoin: miter; stroke-miterlimit: 4; fill: #13aa87; fill-rule: ; opacity: 1;"> </tspan></text>
 </g>
</svg>